<?xml version="1.0" standalone="no"?>
<!DOCTYPE svg PUBLIC "-//W3C//DTD SVG 1.1//EN" "http://www.w3.org/Graphics/SVG/1.1/DTD/svg11.dtd" >
<svg xmlns="http://www.w3.org/2000/svg" xmlns:xlink="http://www.w3.org/1999/xlink" version="1.1">
<metadata></metadata>
<defs>
<font id="tescobold" horiz-adv-x="1093" >
<font-face units-per-em="2048" ascent="1638" descent="-410" />
<missing-glyph horiz-adv-x="471" />
<glyph horiz-adv-x="0" />
<glyph unicode="&#xd;" horiz-adv-x="471" />
<glyph unicode=" "  horiz-adv-x="471" />
<glyph unicode="&#x09;" horiz-adv-x="471" />
<glyph unicode="&#xa0;" horiz-adv-x="471" />
<glyph unicode="!" horiz-adv-x="573" d="M111 137q0 68 49 117t127 49t127 -49t49 -117t-49 -115t-127 -47t-127 47.5t-49 114.5zM119 1405h278q31 0 31 -27l-16 -979h-219q-31 0 -31 27l-12 846q-2 86 -31 133z" />
<glyph unicode="&#x22;" horiz-adv-x="1021" d="M119 1405h280q31 0 31 -27l-20 -579h-211q-29 0 -31 26l-18 447q-4 90 -31 133zM569 1405h281q31 0 31 -27l-21 -579h-211q-29 0 -31 26l-18 447q-4 90 -31 133z" />
<glyph unicode="#" horiz-adv-x="1220" d="M66 414v176h198l31 201h-143q-29 0 -29 22v176h201l55 363q4 29 31 28h204q-14 -23 -30 -133l-39 -258h221l55 363q4 29 31 28h203q-14 -23 -31 -133l-39 -258h139q29 0 29 -22v-176h-197l-30 -201h141q29 0 29 -23v-176h-201l-59 -391h-185q-35 0 -30 27l55 364h-221 l-60 -391h-186q-35 0 -31 27l55 364h-139q-29 0 -28 23zM485 590h222l30 201h-221z" />
<glyph unicode="$" horiz-adv-x="1148" d="M55 84l86 223q197 -106 371 -106q248 0 248 161q0 80 -66 130q-49 39 -186 88q-193 70 -277 139q-123 106 -122 282q0 141 86 246q98 119 276 150v135h178q31 0 31 -27v-100q141 -12 207 -39q41 -16 45 -57l24 -215q-182 84 -340 84q-233 0 -233 -168q0 -72 78 -123 q51 -37 192 -86q193 -70 279 -142q123 -106 123 -280q0 -162 -96.5 -267.5t-278.5 -134.5v-155h-178q-31 0 -31 26v121q-213 12 -416 115z" />
<glyph unicode="%" horiz-adv-x="2084" d="M113 977q0 201 97 314.5t273 113.5t273.5 -113.5t97.5 -314.5t-97.5 -313.5t-273.5 -112.5t-273 112.5t-97 313.5zM352 977q0 -252 131 -252t131 252q0 254 -131 254t-131 -254zM559 6l725 1399h215q33 0 33 -19q0 -8 -8 -22l-723 -1389h-228q-27 0 -14 31zM1231 401 q0 201 97 314.5t274 113.5q176 0 273 -113.5t97 -314.5t-97 -313.5t-273 -112.5t-273.5 113t-97.5 313zM1470 401q0 -252 132 -251q131 -1 131 251q0 254 -131 254t-132 -254z" />
<glyph unicode="&#x26;" horiz-adv-x="1392" d="M66 391q0 154 77 258q68 88 213 164q-121 135 -120 293q0 141 109.5 236.5t295.5 95.5q197 0 303 -99q94 -86 94 -221q0 -164 -120 -266q-68 -57 -160 -111l241 -290q100 127 156 258l201 -95q-82 -190 -217 -333l233 -281h-301q-35 0 -59 29l-64 75q-178 -137 -413 -137 q-203 0 -336 120t-133 304zM352 406q0 -96 63.5 -150.5t164.5 -54.5q131 -1 227 73l-299 357q-156 -76 -156 -225zM485 1108q0 -86 115 -205q193 88 193 211q0 137 -152 137q-70 0 -113 -40t-43 -103z" />
<glyph unicode="'" horiz-adv-x="575" d="M119 1405h284q31 0 31 -27l-20 -579h-215q-29 0 -31 26l-18 447q-4 90 -31 133z" />
<glyph unicode="(" horiz-adv-x="759" d="M111 559q0 305 131 521t374 325l123 -207q-172 -102 -252 -250q-86 -156 -86 -389t86 -389q80 -148 252 -250l-123 -207q-244 109 -374.5 325t-130.5 521z" />
<glyph unicode=")" horiz-adv-x="759" d="M20 -80q172 102 252 250q86 156 86 389t-86 389q-80 147 -252 250l123 207q244 -109 375 -325t131 -521t-131 -521t-375 -325z" />
<glyph unicode="*" horiz-adv-x="1019" d="M100 1028l64 203l248 -92l-11 135q-6 92 -30 131h217q33 0 30 -27l-12 -239l248 92l66 -203l-258 -74l167 -209l-174 -127l-145 220l-145 -220l-175 127l168 209z" />
<glyph unicode="+" d="M29 592v217h391v393h227q31 0 31 -26v-367h360q29 0 29 -23v-219h-389v-399h-229q-29 0 -29 27v372h-361q-31 0 -30 25z" />
<glyph unicode="," horiz-adv-x="559" d="M106 137q0 70 47.5 118t127.5 48t129 -55.5t49 -153.5q0 -137 -82 -291q-61 -115 -123 -174l-129 84q109 139 123 267q-141 33 -142 157z" />
<glyph unicode="-" horiz-adv-x="759" d="M76 449v221h579q29 0 29 -23v-223h-578q-31 0 -30 25z" />
<glyph unicode="." horiz-adv-x="571" d="M109 137q0 68 49 117t127 49t127 -49t49 -117t-49.5 -115t-126.5 -47q-78 0 -127 47.5t-49 114.5z" />
<glyph unicode="/" horiz-adv-x="634" d="M14 23q0 4 6 28l353 1354h217q28 0 28 -23q0 -4 -6 -28l-352 -1354h-217q-29 0 -29 23z" />
<glyph unicode="0" d="M51 688q0 342 128 529.5t368 187.5t367.5 -187.5t127.5 -529.5q0 -340 -128 -526.5t-367 -186.5q-240 0 -368 186.5t-128 526.5zM336 688q0 -485 211 -485t211 485q0 489 -211 490q-211 0 -211 -490z" />
<glyph unicode="1" d="M139 993l445 387h168q31 0 30 -26v-1354h-241q-31 0 -31 27v995l-195 -180q-14 -10 -24 -11q-12 0 -21 11z" />
<glyph unicode="2" d="M59 23v127l310 362q174 205 230 303t56 195q0 76 -49 120t-127 44q-98 0 -182 -74q-31 -29 -76 -84l-123 121q-25 25 -24 45q0 25 49 71q156 152 385 152q184 0 301 -94q125 -100 125 -277q0 -156 -84 -305q-59 -104 -215 -283l-195 -223h379q84 0 137 33v-256h-868 q-29 0 -29 23z" />
<glyph unicode="3" d="M39 74l82 209q137 -78 291 -78q276 0 276 235q0 160 -184 203q-96 23 -191 23h-8q-25 0 -24 26v144l319 331h-485q-31 0 -31 27v186h801q29 0 28 -22v-164l-329 -350q164 -27 250 -99q133 -108 133 -301q0 -238 -176 -362q-150 -106 -369 -107q-244 0 -383 99z" />
<glyph unicode="4" d="M55 352v176l576 852h215q29 0 28 -22v-823h109q27 0 31 -29l26 -180h-166v-326h-217q-29 0 -28 23v303h-545q-29 0 -29 26zM305 535h324v499z" />
<glyph unicode="5" d="M43 74l86 213q133 -78 270 -78q125 0 197 61q80 66 80 191q0 238 -369 237q-35 0 -65.5 -2t-42.5 -2q-33 0 -31 27l33 659h700q39 0 35 -32l-21 -195h-497l-10 -233q546 -23 546 -459q0 -246 -172 -375q-145 -111 -364 -111q-225 0 -375 99z" />
<glyph unicode="6" d="M68 596q0 373 200 606q172 201 445 201q100 0 155 -21q29 -10 35 -34l49 -193q-84 33 -200 33q-135 0 -226 -72q-125 -98 -155 -295q102 92 268 92q172 0 287 -112q127 -125 127 -338q0 -217 -138.5 -352.5t-351.5 -135.5q-223 0 -352 146q-143 160 -143 475zM344 442 q0 -117 56.5 -181t158.5 -64q104 0 164.5 66t60.5 183q0 252 -223 252q-100 0 -158.5 -71.5t-58.5 -184.5z" />
<glyph unicode="7" d="M66 1169v211h907q29 0 28 -22v-141l-514 -1217h-239q-31 0 -31 18q0 6 4 19l484 1106h-609q-31 0 -30 26z" />
<glyph unicode="8" d="M49 383q0 106 55 197q59 98 172 149q-180 100 -180 297q0 172 121 275.5t330 103.5q211 0 330.5 -99.5t119.5 -271.5q0 -193 -190 -299q237 -117 237 -340q0 -195 -132 -307.5t-365 -112.5q-231 0 -364.5 111t-133.5 297zM315 391q0 -102 66 -158q59 -51 162 -51 q100 0 160.5 53.5t60.5 149.5q0 174 -256 244q-193 -72 -193 -238zM354 1024q0 -137 193 -199q198 64 198 209q0 84 -54 129t-138 45q-90 0 -144.5 -48t-54.5 -136z" />
<glyph unicode="9" d="M41 926q0 211 138 345t349 134q248 0 381 -174q119 -158 119 -416q0 -459 -287 -706q-158 -135 -411 -136q-53 0 -150 15l29 217q43 -8 96 -8q184 0 295 108q100 96 125 268q-100 -96 -264 -96q-176 0 -293 113q-127 123 -127 336zM309 944q0 -115 58.5 -180.5 t162.5 -65.5q102 0 160 66.5t58 177.5q0 109 -57.5 175.5t-160.5 66.5q-102 0 -161.5 -64.5t-59.5 -175.5z" />
<glyph unicode=":" horiz-adv-x="571" d="M109 137q0 70 49 118t127 48t127 -48t49 -118q0 -68 -49.5 -115t-126.5 -47q-78 0 -127 47.5t-49 114.5zM109 801q0 70 49 118t127 48t127 -48t49 -118q0 -68 -49.5 -115t-126.5 -47q-78 0 -127 47t-49 115z" />
<glyph unicode=";" horiz-adv-x="571" d="M109 137q0 70 47 118t127 48t129 -55.5t49 -153.5q0 -137 -82 -291q-61 -115 -123 -174l-129 84q109 139 123 267q-141 33 -141 157zM109 801q0 70 49 118t127 48t127 -48t49 -118q0 -68 -49.5 -115t-126.5 -47q-78 0 -127 47t-49 115z" />
<glyph unicode="&#x3c;" d="M27 600v199l1038 420v-273l-703 -262l703 -260v-272l-1006 403q-33 12 -32 45z" />
<glyph unicode="=" d="M29 381v217h1009q29 0 29 -23v-219h-1008q-31 0 -30 25zM29 803v217h1009q29 0 29 -23v-219h-1008q-31 0 -30 25z" />
<glyph unicode="&#x3e;" d="M29 152v272l702 262l-702 260v273l1005 -404q33 -12 33 -45v-199z" />
<glyph unicode="?" horiz-adv-x="1140" d="M109 1194q0 23 30 53q168 172 418 172q178 0 291 -90q123 -96 123 -264q0 -115 -60 -209q-37 -61 -127 -145q-70 -66 -94 -103q-39 -59 -39 -131v-78h-219q-31 0 -31 27v113q0 86 39 155q29 47 97 117q80 82 100 109q47 63 47 129q0 133 -154 133q-129 0 -268 -162 l-129 129q-25 25 -24 45zM350 137q0 68 49.5 117t126.5 49q78 0 127 -49t49 -117t-49 -115t-127 -47t-127 47.5t-49 114.5z" />
<glyph unicode="@" horiz-adv-x="1994" d="M111 418q0 479 311 751q268 233 645 234q406 0 621 -207q196 -189 196 -502q0 -307 -147.5 -486t-386.5 -179q-182 0 -215 114q-98 -115 -256 -114q-154 0 -244 95t-90 269q0 258 143 432q154 186 410 187q201 0 372 -97q-31 -31 -43 -96l-90 -459q-10 -51 -10 -73 q0 -57 57 -58q98 0 175 109q92 133 92 371q0 219 -131 344q-152 143 -459 143q-295 0 -498 -203q-217 -219 -217 -573q0 -264 168 -422q180 -168 512 -168q244 0 428 53l55 -209q-203 -59 -473 -59q-440 0 -682.5 217t-242.5 586zM788 408q0 -174 123 -175q111 0 189 115 l86 445q-47 20 -119 20q-102 0 -182 -94q-96 -113 -97 -311z" />
<glyph unicode="A" horiz-adv-x="1296" d="M0 20q0 14 8 37l416 1135q31 84 31 137q0 47 -19 76h334q23 0 31 -21l495 -1384h-268q-35 0 -47 37l-92 293h-518l-113 -330h-225q-33 0 -33 20zM446 551h375l-180 586z" />
<glyph unicode="B" horiz-adv-x="1310" d="M137 1405h547q215 0 324 -92q116 -97 116 -251q0 -208 -163 -304q247 -91 247 -357q0 -174 -133 -287.5t-348 -113.5h-528q-31 0 -31 27v1245q0 84 -31 133zM444 225h246q102 0 158.5 55.5t56.5 143.5t-56 142.5t-159 54.5h-246v-396zM444 846h211q80 0 128 46t48 122 q0 166 -176 166h-211v-334z" />
<glyph unicode="C" horiz-adv-x="1282" d="M111 705q0 315 178 518q182 211 483 211q201 0 311 -50q51 -23 56 -65l22 -232q-156 98 -344 99q-184 0 -289 -111q-118 -124 -118 -371q0 -242 125 -372q111 -117 284 -117q184 0 348 72l80 -226q-197 -90 -436 -90q-334 0 -517 195.5t-183 538.5z" />
<glyph unicode="D" horiz-adv-x="1476" d="M137 1405h557q305 0 492 -203q180 -195 180 -500t-180 -499q-186 -203 -492 -203h-495q-31 0 -31 27v1245q0 84 -31 133zM451 240h241q158 0 262 118q111 127 111 344q0 219 -111 347q-103 116 -259 116h-3h-241v-925z" />
<glyph unicode="E" horiz-adv-x="1167" d="M137 1405h854q37 0 43 -37l33 -233q-47 30 -128 30h-5h-483v-313h550v-270q-47 30 -128 30h-5h-417v-372h505q84 0 134 30v-270h-891q-31 0 -31 27v1245q0 84 -31 133z" />
<glyph unicode="F" horiz-adv-x="1097" d="M137 1405h836q37 0 43 -37l33 -233q-47 30 -129 30h-5h-464v-346h497v-268q-49 31 -133 31h-364v-582h-252q-31 0 -31 27v1245q0 84 -31 133z" />
<glyph unicode="G" horiz-adv-x="1449" d="M111 707q0 317 182 520q193 211 520 211q190 0 332 -52q53 -18 57 -67l23 -236q-184 111 -391 111q-195 0 -304 -117q-120 -128 -120 -373q0 -242 133 -374q121 -119 307 -119q113 0 194 18v303h-204q-31 0 -31 27v213h479q31 0 31 -27v-675q-70 -39 -203 -70 q-143 -33 -274 -33q-346 0 -538.5 197.5t-192.5 542.5z" />
<glyph unicode="H" horiz-adv-x="1447" d="M137 1405h283q31 0 31 -27v-497h546v495q0 29 31 29h283q-31 -49 -31 -133v-1272h-252q-31 0 -31 27v612h-546v-639h-252q-31 0 -31 27v1245q0 84 -31 133z" />
<glyph unicode="I" horiz-adv-x="618" d="M137 1405h344q-30 -47 -30 -128v-5v-1272h-252q-31 0 -31 27v1245q0 84 -31 133z" />
<glyph unicode="J" horiz-adv-x="1091" d="M25 160l149 164q106 -131 252 -131q125 0 178 67q47 61 47 195v817q0 84 -30 133h344q-31 -49 -31 -133v-854q0 -451 -485 -451q-154 0 -279 70q-98 51 -145 123z" />
<glyph unicode="K" horiz-adv-x="1390" d="M137 1405h283q31 0 31 -27v-534l473 526q31 35 75 35h318q-35 -12 -109 -92l-514 -563l697 -750h-342q-41 0 -72 35l-526 586v-621h-252q-31 0 -31 27v1245q0 84 -31 133z" />
<glyph unicode="L" horiz-adv-x="1155" d="M137 1405h344q-30 -47 -30 -128v-5v-1032h510q84 0 133 30v-270h-895q-31 0 -31 27v1245q0 84 -31 133z" />
<glyph unicode="M" horiz-adv-x="1722" d="M137 1405h336q31 0 47 -37l338 -790l348 827h379q-31 -49 -31 -133v-1272h-249q-31 0 -31 27v1032l-387 -942h-74l-373 921v-1038h-241q-31 0 -31 27v1245q0 84 -31 133z" />
<glyph unicode="N" horiz-adv-x="1447" d="M137 1405h299q43 0 66 -37l512 -836v846q0 27 30 27h267q-31 -49 -31 -133v-1282h-176q-37 0 -51 24l-619 1016v-1030h-235q-31 0 -31 27v1245q0 84 -31 133z" />
<glyph unicode="O" horiz-adv-x="1576" d="M111 702q0 332 179 534t498 202t502 -205q176 -199 176 -531t-176 -530q-182 -205 -502 -205q-319 0 -501 205q-176 199 -176 530zM412 702q0 -246 106 -376q100 -125 270 -125t273.5 127.5t103.5 373.5t-106 377q-98 123 -271 123q-172 0 -270 -123q-106 -131 -106 -377 z" />
<glyph unicode="P" horiz-adv-x="1257" d="M137 1405h520q227 0 351 -86q147 -105 147 -324q0 -236 -156 -354q-135 -102 -401 -102q-25 0 -154 6v-545h-245q-31 0 -31 27v1245q0 84 -31 133zM446 764q68 -6 170 -6q248 0 248 221q0 203 -229 203h-189v-418z" />
<glyph unicode="Q" horiz-adv-x="1609" d="M111 702q0 332 179 534t498 202t502 -205q176 -199 176 -531q0 -430 -288 -626l321 -293h-358q-51 0 -94 43l-152 149q-47 -8 -107 -8q-319 0 -501 205q-176 199 -176 530zM412 702q0 -244 106 -376q100 -125 270 -125t271 125q106 132 106 376q0 246 -106 377 q-98 123 -271 123q-172 0 -270 -123q-106 -131 -106 -377z" />
<glyph unicode="R" horiz-adv-x="1366" d="M137 1405h531q229 0 350 -86q145 -104 145 -313q0 -219 -141 -336q-31 -25 -74 -45l389 -625h-297q-51 0 -71 37l-299 522q-23 -2 -62 -2h-164v-557h-245q-31 0 -31 27v1245q0 84 -31 133zM446 778h185q241 0 241 211q0 193 -227 193h-199v-404z" />
<glyph unicode="S" horiz-adv-x="1232" d="M72 88l88 227q203 -108 386 -108h3q262 0 262 166q0 82 -68 131q-53 41 -198 90q-205 70 -293 143q-127 106 -127 287q0 170 121 283q137 131 389 131q197 0 305 -41q43 -16 47 -60l25 -219q-184 86 -357 86q-249 0 -249 -171q0 -75 79 -126q55 -37 207 -88 q203 -70 293 -145q127 -107 127 -285q0 -197 -139 -308.5t-400 -111.5q-274 0 -501 119z" />
<glyph unicode="T" horiz-adv-x="1183" d="M45 1192v213h1034q31 0 37 -37l37 -233q-47 30 -128 30h-5h-287v-1165h-252q-31 0 -30 27v1138h-375q-31 0 -31 27z" />
<glyph unicode="U" horiz-adv-x="1427" d="M127 1405h283q31 0 30 -27v-884q0 -289 273 -289q145 0 209.5 69.5t64.5 219.5v884q0 27 31 27h282q-30 -47 -30 -128v-5v-811q0 -494 -557 -494q-555 0 -555 494v811q0 84 -31 133z" />
<glyph unicode="V" horiz-adv-x="1339" d="M0 1405h297q35 0 47 -37l336 -1018l336 1018q12 37 49 37h274q-29 -18 -59 -105l-467 -1308h-260q-23 0 -31 20l-463 1291q-29 82 -59 102z" />
<glyph unicode="W" horiz-adv-x="1832" d="M0 1405h291q39 0 47 -35l215 -973l229 985h240q39 0 47 -34l215 -953l223 973q8 37 47 37h279q-41 -27 -59 -105l-318 -1308h-272q-27 0 -31 18l-235 969l-246 -987h-269q-27 0 -30 16l-314 1288q-20 82 -59 109z" />
<glyph unicode="X" horiz-adv-x="1357" d="M43 23q0 16 33 63l448 655l-362 574q-49 78 -88 90h305q47 0 67 -33l246 -401l264 401q23 33 70 33h274q-33 -12 -86 -90l-378 -555l487 -760h-311q-23 0 -33 18l-311 510l-349 -528h-241q-35 0 -35 23z" />
<glyph unicode="Y" horiz-adv-x="1288" d="M0 1405h313q49 0 68 -33l268 -479l289 479q20 33 68 33h282q-37 -12 -86 -90l-428 -672v-643h-252q-31 0 -30 27v612l-404 676q-45 76 -88 90z" />
<glyph unicode="Z" horiz-adv-x="1265" d="M63 27v135l725 1003h-643q-31 0 -30 27v213h1032q31 0 31 -27v-135l-725 -1003h604q84 0 133 30v-270h-1096q-31 0 -31 27z" />
<glyph unicode="[" horiz-adv-x="770" d="M139 -262v1667h557q29 0 29 -23v-211h-311v-1224h282q29 0 29 -23v-211h-559q-27 0 -27 25z" />
<glyph unicode="\" horiz-adv-x="638" d="M10 1405h226q29 0 36 -31l357 -1374h-226q-29 0 -36 31z" />
<glyph unicode="]" horiz-adv-x="770" d="M45 -53h311v1224h-282q-29 0 -29 23v211h559q27 0 27 -25v-1667h-557q-29 0 -29 23v211z" />
<glyph unicode="^" horiz-adv-x="1146" d="M78 647q0 10 8 27l365 731h211q23 0 30 -16l377 -760h-285l-221 465l-219 -465h-242q-25 0 -24 18z" />
<glyph unicode="_" horiz-adv-x="1024" d="M0 -285h1024v-102h-1024v102z" />
<glyph unicode="`" horiz-adv-x="1216" d="M326 1395h309q39 0 55 -29l176 -291h-182q-43 0 -72 31l-194 209q-45 49 -92 80z" />
<glyph unicode="a" horiz-adv-x="1099" d="M92 293q0 317 414 317q80 0 188 -14v41q0 154 -202 154q-139 0 -265 -70l-53 121q-8 18 -8 37q0 31 57 55q137 57 299 57q436 0 436 -354v-637h-229q-31 0 -31 27v84q-72 -127 -286 -127q-152 0 -236 86t-84 223zM354 311q0 -127 148 -127q129 0 192 74v172 q-82 16 -159 16q-180 0 -181 -135z" />
<glyph unicode="b" horiz-adv-x="1155" d="M111 1405l208 14q59 4 60 4q31 0 31 -26v-490q76 84 241 84q188 0 301 -131t113 -348q0 -268 -145 -408q-133 -129 -369 -129q-258 0 -434 86q24 51 24 114v5v1092q0 84 -30 133zM410 211q74 -27 149 -27q225 0 225 301q0 141 -59 215q-53 66 -145 66q-98 0 -170 -66 v-489z" />
<glyph unicode="c" horiz-adv-x="997" d="M90 471q0 240 135 380t375 140q113 0 213 -35q45 -16 49 -59l19 -213q-123 78 -258 78q-109 0 -177 -70q-75 -77 -75 -215q0 -270 266 -270q113 0 235 51l62 -217q-164 -66 -338 -66q-184 0 -313 88q-193 133 -193 408z" />
<glyph unicode="d" horiz-adv-x="1175" d="M90 477q0 236 129 379q125 135 313 135q147 0 234 -80v361q0 84 -31 133l209 14q59 4 60 4q31 0 30 -26v-1397h-223q-27 0 -31 27l-10 88q-23 -49 -84 -84q-80 -47 -190 -47q-170 0 -283 120q-123 133 -123 373zM369 479q0 -278 211 -278h2q114 0 184 98v403 q-72 68 -182 68q-98 0 -156.5 -74.5t-58.5 -216.5z" />
<glyph unicode="e" horiz-adv-x="1064" d="M90 477q0 231 122 372.5t339 141.5q225 0 336 -149q96 -131 96 -363v-22q0 -53 -59 -54h-559q25 -210 260 -210h2q131 0 262 51l72 -195q-152 -74 -357 -74q-240 0 -377 137.5t-137 364.5zM365 584h348q0 229 -170 229q-178 0 -178 -229z" />
<glyph unicode="f" horiz-adv-x="749" d="M53 778v84l144 92v97q0 166 103 269t267 103q113 0 197 -32q39 -14 43 -52l20 -188q-115 51 -202 51q-160 0 -160 -158v-77h199q27 0 30 -29l27 -182h-256v-756h-238q-31 0 -30 27v729h-115q-29 0 -29 22z" />
<glyph unicode="g" horiz-adv-x="1153" d="M90 471q0 254 146 391q135 129 368 129q262 0 434 -86q-24 -51 -24 -114v-5v-729q0 -444 -482 -444q-197 0 -374 59l53 191q141 -53 289 -53q246 0 245 190v96q-76 -88 -245 -88q-174 0 -292 128t-118 335zM571 231q108 1 174 60v463q-73 26 -144 26h-5q-98 0 -158 -65 q-67 -73 -67 -215q0 -268 200 -269z" />
<glyph unicode="h" horiz-adv-x="1181" d="M111 1405l208 14q59 4 60 4q31 0 31 -26v-525q104 119 278 119q352 0 352 -362v-629h-241q-31 0 -31 27v551q0 96 -34 139t-118 43q-57 0 -116.5 -36t-89.5 -87v-637h-238q-31 0 -31 27v1245q0 84 -30 133z" />
<glyph unicode="i" horiz-adv-x="542" d="M100 1239q0 59 45 100t119 41t119 -41t45 -100q0 -57 -45 -98t-119 -41t-119 41t-45 98zM104 967h269q31 0 30 -27v-940h-237q-31 0 -31 27v807q0 84 -31 133z" />
<glyph unicode="j" horiz-adv-x="546" d="M-184 -342l57 186q57 -26 128 -26h5q133 0 133 151v865q0 84 -30 133h268q31 0 31 -27v-965q0 -176 -98.5 -269t-262.5 -93q-137 0 -231 45zM104 1239q0 59 45.5 100t118.5 41q74 0 119 -41t45 -100t-45 -100t-119 -41t-119 41t-45 100z" />
<glyph unicode="k" horiz-adv-x="1120" d="M111 1405l208 14q59 4 60 4q31 0 31 -26v-817l290 366q16 20 50 21h311q-33 -12 -74 -62l-311 -370l444 -535h-321q-35 0 -60 31l-329 426v-457h-238q-31 0 -31 27v1245q0 84 -30 133z" />
<glyph unicode="l" horiz-adv-x="550" d="M111 1405l208 14q59 4 60 4q31 0 31 -26v-1397h-238q-31 0 -31 27v1245q0 84 -30 133z" />
<glyph unicode="m" horiz-adv-x="1742" d="M100 967h230q29 0 38 -21.5t15 -107.5q93 153 298 153h3q209 0 283 -160q119 160 301 160q334 0 334 -346v-645h-242q-31 0 -31 27v567q0 88 -29.5 127t-105.5 39q-113 0 -188 -123v-637h-242q-31 0 -31 27v567q0 88 -29.5 127t-105.5 39q-113 0 -188 -123v-637h-238 q-31 0 -31 27v675q0 76 -18 189q-6 41 -23 76z" />
<glyph unicode="n" horiz-adv-x="1177" d="M100 967h230q29 0 37 -21q10 -29 16 -108q97 153 298 153h3q352 0 352 -362v-629h-241q-31 0 -31 27v551q0 96 -34 139t-118 43q-57 0 -113.5 -36t-88.5 -87v-637h-238q-31 0 -31 27v675q0 76 -18 189q-6 41 -23 76z" />
<glyph unicode="o" horiz-adv-x="1155" d="M90 483q0 236 139 375q133 133 349 133q215 0 348 -133q139 -139 139 -375t-136 -372t-351 -136t-349 134q-139 139 -139 374zM369 483q0 -137 55 -212.5t154 -75.5q98 0 153 75.5t55 212.5t-55 212t-153 75t-153.5 -74.5t-55.5 -212.5z" />
<glyph unicode="p" horiz-adv-x="1175" d="M100 967h230q29 0 37 -21q12 -29 18 -88q109 133 291 133t291 -123q118 -130 118 -374q0 -240 -127 -379.5t-317 -139.5q-137 0 -231 80v-432h-238q-31 0 -31 27v1052q0 90 -18 189q-8 45 -23 76zM410 270q79 -75 183 -75h3q96 0 153.5 76.5t57.5 215.5q0 283 -213 283 q-98 0 -184 -78v-422z" />
<glyph unicode="q" horiz-adv-x="1153" d="M90 451q0 268 150 409q139 131 374 131q254 0 424 -92q-24 -51 -24 -114v-5v-1157h-238q-31 0 -31 27v403q-88 -78 -233 -78q-193 0 -309 140q-113 133 -113 336zM371 483q0 -286 199 -286h1h3q104 0 171 65v492q-73 26 -144 26h-5q-225 0 -225 -297z" />
<glyph unicode="r" horiz-adv-x="761" d="M100 967h230q27 0 37 -21q18 -39 28 -123q88 156 250 156q63 0 68 -39l20 -235q-66 20 -125 20q-129 0 -198 -104v-621h-238q-31 0 -31 27v675q0 100 -18 189q-10 49 -23 76z" />
<glyph unicode="s" horiz-adv-x="929" d="M66 57l71 199q154 -72 283 -72q151 0 151 77q0 46 -31.5 69.5t-142.5 58.5q-154 49 -221 120t-67 189q0 121 92 203q102 90 284 90q131 0 224 -28q45 -14 49 -58l18 -194q-139 73 -270 73h-4q-137 0 -137 -84q0 -43 69 -73l176 -62q230 -82 230 -291q0 -299 -404 -299 q-197 0 -370 82z" />
<glyph unicode="t" horiz-adv-x="772" d="M39 778v94q100 72 141 117q92 100 125 238h119q31 0 31 -27v-233h196q27 0 31 -29l27 -182h-254v-422q0 -70 25.5 -100.5t94.5 -30.5q49 0 115 20l58 -188q-121 -51 -259 -51q-307 0 -307 280v492h-114q-29 0 -29 22z" />
<glyph unicode="u" horiz-adv-x="1177" d="M111 967h272q31 0 31 -27v-551q0 -98 35.5 -138t117.5 -40q127 0 201 102v521q0 84 -31 133h269q31 0 30 -27v-940h-225q-29 0 -31 27l-8 88q-84 -131 -289 -131q-152 0 -241 77q-100 88 -101 281v492q0 84 -30 133z" />
<glyph unicode="v" horiz-adv-x="1052" d="M0 967h270q35 0 47 -37l213 -617l215 617q12 37 50 37h258q-25 -16 -60 -105l-336 -862h-243q-23 0 -31 20l-324 842q-33 88 -59 105z" />
<glyph unicode="w" horiz-adv-x="1521" d="M0 967h272q39 0 47 -37l152 -619l178 633h205q37 0 47 -37l160 -596l158 619q10 37 49 37h254q-33 -23 -60 -105l-274 -862h-244q-25 0 -31 20l-153 558l-162 -578h-244q-25 0 -30 20l-265 842q-27 82 -59 105z" />
<glyph unicode="x" horiz-adv-x="993" d="M10 16q0 10 23 41l317 447l-264 401q-18 29 -27 39q-16 16 -32 23h284q31 0 45 -23l148 -233l160 233q16 23 45 23h266q-20 -6 -60 -62l-274 -389l342 -516h-289q-16 0 -22 12l-187 293l-206 -305h-244q-25 0 -25 16z" />
<glyph unicode="y" horiz-adv-x="1075" d="M0 967h283q33 0 47 -37l231 -582l209 582q12 37 49 37h256q-25 -16 -59 -105l-369 -930q-127 -319 -391 -319q-139 0 -233 47l65 203q72 -31 131 -31q113 0 170 139l37 90l-365 803q-20 45 -30 62q-16 31 -31 41z" />
<glyph unicode="z" horiz-adv-x="1003" d="M57 23v96l482 637h-416q-31 0 -31 26v185h799q29 0 29 -23v-96l-484 -637h357q84 0 133 31v-242h-840q-29 0 -29 23z" />
<glyph unicode="{" horiz-adv-x="813" d="M45 463v217h64q129 0 129 117v223q0 385 383 385h118q29 0 29 -23v-211h-109q-78 0 -106 -24q-35 -33 -35 -135v-156q0 -221 -135 -297q135 -74 135 -295v-158q0 -102 35 -135q29 -25 106 -24h80q29 0 29 -23v-211h-147q-383 0 -383 385v226q0 117 -129 116h-35 q-29 0 -29 23z" />
<glyph unicode="|" horiz-adv-x="655" d="M190 0v1405h275v-1405h-275z" />
<glyph unicode="}" horiz-adv-x="813" d="M45 -53h109q78 0 106 24q35 33 35 135v156q0 221 135 297q-135 74 -135 295v158q0 102 -35 135q-29 25 -106 24h-80q-29 0 -29 23v211h148q383 0 382 -385v-225q0 -117 130 -117h34q29 0 29 -23v-217h-63q-129 0 -130 -116v-224q0 -385 -382 -385h-119q-29 0 -29 23v211z " />
<glyph unicode="~" horiz-adv-x="1312" d="M57 393q160 313 373 314q111 0 256 -88.5t199 -88.5q49 0 87 34t93 130l190 -119q-160 -313 -372 -313q-113 0 -257.5 88t-197.5 88q-49 0 -87 -33.5t-93 -130.5z" />
<glyph unicode="&#xa1;" horiz-adv-x="573" d="M111 1268q0 68 49 115t127 47t127 -47t49 -115t-49 -117t-127 -49t-127 49t-49 117zM145 27l17 979h219q31 0 31 -27l12 -846q2 -86 31 -133h-279q-31 0 -31 27z" />
<glyph unicode="&#xa2;" horiz-adv-x="997" d="M59 678q0 213 106.5 349t301.5 165v160h190v-158q70 -10 125 -31q45 -16 49 -59l19 -213q-123 78 -258 78q-109 0 -176 -70q-76 -78 -76 -219q0 -266 266 -266q113 0 236 51l61 -217q-129 -49 -246 -60v-188h-190v190q-121 14 -215 80q-193 133 -193 408z" />
<glyph unicode="&#xa3;" horiz-adv-x="1122" d="M53 43v197h131l78 368h-76q-43 0 -43 43v172h164l21 103q43 219 139 334q125 145 352 145q127 0 207 -29q45 -16 47 -41l25 -215q-104 72 -246 72q-127 0 -188 -76q-49 -61 -82 -217l-17 -76h309q35 0 37 -32l17 -183h-408l-76 -368h508q59 0 92 24v-264h-950 q-41 0 -41 43z" />
<glyph unicode="&#xa4;" horiz-adv-x="1306" d="M88 268l145 146q-84 123 -83 274q0 152 83 277l-145 143l143 143l146 -143q127 82 274 82q145 0 277 -82l143 143l143 -143l-143 -143q82 -127 82 -277q0 -147 -82 -274l143 -146l-143 -143l-143 145q-123 -84 -277 -84q-147 0 -274 84l-146 -145zM393 688 q0 -109 76 -187.5t182 -78.5t182 78.5t76 187.5t-75.5 187.5t-182.5 78.5q-106 0 -182 -78.5t-76 -187.5z" />
<glyph unicode="&#xa5;" horiz-adv-x="1288" d="M0 1380h309q49 0 68 -32l272 -476l293 476q20 33 68 32h278q-37 -12 -88 -90l-350 -532h215q29 0 29 -23v-145h-320v-164h291q29 0 29 -23v-145h-320v-258h-252q-31 0 -30 27v231h-267q-31 0 -30 25v143h297v164h-267q-31 0 -30 24v144h229l-334 532q-47 76 -90 90z" />
<glyph unicode="&#xa6;" horiz-adv-x="655" d="M190 0v469h275v-469h-275zM190 936v469h275v-469h-275z" />
<glyph unicode="&#xa7;" horiz-adv-x="1052" d="M72 -25l78 189q152 -92 329 -92q86 0 145.5 30.5t59.5 87.5q0 115 -180 154q-199 43 -271 86q-117 70 -116 217q0 158 137 230q-53 20 -90 79q-43 66 -43 150q0 141 110.5 227t290.5 86q152 0 258 -39q45 -16 47 -57l13 -190q-49 33 -148.5 59.5t-177.5 26.5 q-150 0 -149 -105q0 -66 77 -96q18 -6 160 -37q154 -33 229 -88q101 -76 101 -211q0 -158 -139 -242q135 -66 135 -243q0 -152 -118 -239t-316 -87q-223 0 -422 104zM360 672q0 -106 123 -135q35 -8 111 -21q94 54 94 148q0 106 -186 141q-68 -8 -105 -47t-37 -86z" />
<glyph unicode="&#xa8;" horiz-adv-x="1216" d="M238 1202q0 55 36.5 94t104.5 39t104.5 -39t36.5 -94q0 -53 -35 -88q-39 -41 -106 -41q-68 0 -107 41q-35 35 -34 88zM692 1202q0 55 37 94t105 39q139 0 139 -133q0 -53 -33 -88q-39 -41 -106 -41q-68 0 -107 41q-35 35 -35 88z" />
<glyph unicode="&#xa9;" horiz-adv-x="1800" d="M111 700q0 324 231 554.5t559 230.5t558.5 -230.5t230.5 -554.5t-230.5 -554t-558.5 -230t-559 230.5t-231 553.5zM315 702q0 -242 172 -416.5t412 -174.5q246 0 415 173.5t169 417.5q0 242 -170 415t-414 173q-248 0 -416 -172t-168 -416zM487 705q0 176 111 290 q119 123 324 123q96 0 180 -26q35 -10 39 -41l20 -156q-131 59 -235 59q-236 0 -236 -260q0 -127 80 -190q63 -51 166 -51q94 0 221 39l45 -154q-127 -53 -272 -53q-209 0 -326 111.5t-117 308.5z" />
<glyph unicode="&#xaa;" horiz-adv-x="1013" d="M104 852q0 252 351 252q63 0 161 -12v32q0 121 -174 121q-117 0 -223 -55l-45 96q-8 18 -8 29q0 27 49 45q121 45 254 45q371 0 371 -281v-506h-195q-27 0 -27 23v66q-59 -100 -243 -101q-129 0 -200 68.5t-71 177.5zM328 866q0 -100 125 -100q112 0 163 57v138 q-70 12 -137 12q-152 0 -151 -107z" />
<glyph unicode="&#xab;" horiz-adv-x="1122" d="M49 520l273 336h290l-272 -336l272 -336h-290zM510 520l272 336h291l-272 -336l272 -336h-291z" />
<glyph unicode="&#xac;" d="M25 817v217h1009q29 0 29 -22v-619h-229q-29 0 -29 27v373h-750q-31 0 -30 24z" />
<glyph unicode="&#xad;" horiz-adv-x="759" d="M76 449v221h579q29 0 29 -23v-223h-578q-31 0 -30 25z" />
<glyph unicode="&#xae;" horiz-adv-x="1800" d="M111 700q0 324 231 554.5t559 230.5t558.5 -230.5t230.5 -554.5t-230.5 -554t-558.5 -230t-559 230.5t-231 553.5zM315 702q0 -242 172 -416.5t412 -174.5q246 0 415 173.5t169 417.5q0 242 -170 415t-414 173q-248 0 -416 -172t-168 -416zM551 1110h358q313 0 314 -258 q0 -78 -41 -142.5t-107 -82.5l195 -351h-180q-37 0 -54 31l-145 285h-121v-316h-158q-35 0 -34 27v692q0 68 -27 115zM770 735h104q142 0 142 121q0 111 -131 111h-115v-232z" />
<glyph unicode="&#xaf;" horiz-adv-x="1105" d="M231 1104v219h646v-219h-646z" />
<glyph unicode="&#xb0;" horiz-adv-x="1024" d="M152 1044q0 152 105 256.5t255 104.5q152 0 256 -104.5t104 -256.5q0 -150 -104 -255t-256 -105q-150 0 -255 105.5t-105 254.5zM356 1044q0 -68 47.5 -117.5t110.5 -49.5t110.5 49.5t47.5 117.5t-47 117t-111 49q-63 0 -110.5 -49t-47.5 -117z" />
<glyph unicode="&#xb1;" d="M29 25v217h1009q29 0 29 -23v-219h-1008q-31 0 -30 25zM29 723v217h391v393h227q31 0 31 -26v-367h360q29 0 29 -22v-220h-389v-399h-229q-29 0 -29 27v372h-361q-31 0 -30 25z" />
<glyph unicode="&#xb2;" horiz-adv-x="966" d="M125 590v127l260 215q96 80 126 121t30 84q0 84 -101 84q-90 0 -188 -117l-98 96q-25 25 -25 45t41 58q115 102 293 102q143 0 231 -67.5t88 -182.5q0 -170 -229 -344l-76 -57h185q84 0 137 32v-219h-645q-29 0 -29 23z" />
<glyph unicode="&#xb3;" horiz-adv-x="966" d="M119 612l65 179q109 -51 224 -52q162 0 161 88q0 68 -77 82q-43 8 -162 9h-8q-25 0 -25 26v121l211 143h-328q-31 0 -30 27v154h591q29 0 29 -23v-133l-217 -158q252 -32 252 -235q0 -145 -115 -224q-96 -66 -244 -65q-172 0 -327 61z" />
<glyph unicode="&#xb4;" horiz-adv-x="1216" d="M350 1075l187 291q18 29 55 29h299q-45 -29 -92 -80l-199 -209q-29 -31 -72 -31h-178z" />
<glyph unicode="&#xb5;" horiz-adv-x="1177" d="M111 967h272q31 0 31 -27v-551q0 -178 153 -178q127 0 201 102v521q0 84 -31 133h269q31 0 30 -27v-940h-225q-29 0 -31 27l-8 88q-84 -131 -289 -131q-25 0 -69 4v-365h-242q-31 0 -31 27v1184q0 84 -30 133z" />
<glyph unicode="&#xb6;" horiz-adv-x="1224" d="M61 889q0 229 138.5 372.5t363.5 143.5h524q-33 -51 -32 -109v-1673h-203q-27 0 -27 25v1595h-172v-1620h-202q-27 0 -27 25v745q-147 27 -252 168q-111 145 -111 328z" />
<glyph unicode="&#xb7;" horiz-adv-x="571" d="M109 711q0 68 49 117t127 49t127 -49t49 -117t-49.5 -115t-126.5 -47q-78 0 -127 47t-49 115z" />
<glyph unicode="&#xb8;" horiz-adv-x="1105" d="M350 -387l160 262q18 29 55 29h279q-51 -47 -80 -80l-150 -180q-25 -31 -71 -31h-193z" />
<glyph unicode="&#xb9;" horiz-adv-x="966" d="M160 1157l291 232h141q31 0 31 -27v-795h-195q-31 0 -31 27v508l-90 -68q-14 -10 -24 -10t-21 10z" />
<glyph unicode="&#xba;" horiz-adv-x="1155" d="M164 1001q0 188 119 297q113 106 295 107q182 0 297.5 -108t115.5 -296t-115.5 -295.5t-297.5 -107.5t-295 107q-119 109 -119 296zM399 1001q0 -109 47.5 -169t131.5 -60t131 60t47 169q0 227 -178 228q-178 0 -179 -228z" />
<glyph unicode="&#xbb;" horiz-adv-x="1122" d="M49 184l273 336l-273 336h291l272 -336l-272 -336h-291zM510 184l272 336l-272 336h291l272 -336l-272 -336h-291z" />
<glyph unicode="&#xbc;" horiz-adv-x="2084" d="M111 1157l290 232h142q31 0 30 -27v-795h-194q-31 0 -31 27v508l-90 -68q-14 -10 -25 -10q-10 0 -20 10zM498 6l725 1399h215q33 0 32 -19q0 -8 -8 -22l-723 -1389h-227q-27 0 -14 31zM1165 172v147l410 494h188q29 0 29 -22v-486h63q27 0 31 -29l19 -131h-111v-153h-180 q-29 0 -29 22v131h-391q-29 0 -29 27zM1372 305h213v266z" />
<glyph unicode="&#xbd;" horiz-adv-x="2084" d="M92 1157l291 232h141q31 0 31 -27v-795h-195q-31 0 -30 27v508l-90 -68q-14 -10 -25 -10q-10 0 -20 10zM471 6l725 1399h215q33 0 33 -19q0 -8 -8 -22l-723 -1389h-228q-27 0 -14 31zM1196 14v127l260 215q96 80 126 121t30 84q0 84 -101 84q-90 0 -188 -117l-98 97 q-25 25 -25 45t41 57q115 102 293 102q143 0 231 -67.5t88 -181.5q0 -170 -229 -344l-76 -58h185q84 0 137 33v-219h-645q-29 0 -29 22z" />
<glyph unicode="&#xbe;" horiz-adv-x="2084" d="M133 606l57 174q102 -43 226 -43q164 0 164 78q0 92 -228 92h-22q-25 0 -25 27v115l201 153h-305q-31 0 -31 27v160h580q29 0 28 -23v-139l-211 -174q246 -37 246 -236q0 -141 -113 -209q-94 -57 -237 -57q-188 0 -330 55zM569 6l725 1399h215q33 0 33 -19q0 -8 -8 -22 l-723 -1389h-227q-27 0 -15 31zM1208 172v147l410 494h188q29 0 29 -22v-486h63q27 0 31 -29l19 -131h-111v-153h-180q-29 0 -29 22v131h-391q-29 0 -29 27zM1415 305h213v266z" />
<glyph unicode="&#xbf;" horiz-adv-x="1140" d="M170 330q0 115 59 209q37 61 127 145q70 66 95 102q39 59 38 132v77h220q31 0 30 -26v-113q0 -86 -39 -156q-29 -47 -96 -116q-80 -82 -100 -109q-47 -63 -47 -129q0 -133 153 -133q129 0 269 162l129 -129q24 -25 24 -45q0 -23 -31 -54q-168 -172 -417 -172 q-178 0 -291 91q-123 96 -123 264zM438 1257q0 68 49.5 115t126.5 47q78 0 127.5 -47t49.5 -115t-49.5 -116.5t-127.5 -48.5t-127 49t-49 116z" />
<glyph unicode="&#xc0;" horiz-adv-x="1296" d="M0 20q0 14 8 37l416 1135q31 84 31 137q0 47 -19 76h334q23 0 31 -21l495 -1384h-268q-35 0 -47 37l-92 293h-518l-113 -330h-225q-33 0 -33 20zM244 1855h309q39 0 55 -28l176 -291h-182q-43 0 -72 31l-194 209q-45 49 -92 79zM446 551h375l-180 586z" />
<glyph unicode="&#xc1;" horiz-adv-x="1296" d="M0 20q0 14 8 37l416 1135q31 84 31 137q0 47 -19 76h334q23 0 31 -21l495 -1384h-268q-35 0 -47 37l-92 293h-518l-113 -330h-225q-33 0 -33 20zM446 551h375l-180 586zM506 1536l186 291q18 29 56 28h299q-45 -29 -93 -79l-198 -209q-29 -31 -72 -31h-178z" />
<glyph unicode="&#xc2;" horiz-adv-x="1296" d="M0 20q0 14 8 37l416 1135q31 84 31 137q0 47 -19 76h334q23 0 31 -21l495 -1384h-268q-35 0 -47 37l-92 293h-518l-113 -330h-225q-33 0 -33 20zM274 1554q0 10 9 21l239 323h228q29 0 51 -32l229 -330h-162q-39 0 -69 35l-152 172l-180 -207h-172q-20 0 -21 18zM446 551 h375l-180 586z" />
<glyph unicode="&#xc3;" horiz-adv-x="1296" d="M0 20q0 14 8 37l416 1135q31 84 31 137q0 47 -19 76h334q23 0 31 -21l495 -1384h-268q-35 0 -47 37l-92 293h-518l-113 -330h-225q-33 0 -33 20zM272 1640q43 102 108.5 162t131.5 60q61 0 170 -64q74 -43 102 -43q35 0 54 14q27 18 55 82l125 -63q-94 -223 -236 -223 q-66 0 -155 49q-31 18 -63 36.5t-54 18.5q-35 0 -53 -10q-29 -18 -60 -82zM446 551h375l-180 586z" />
<glyph unicode="&#xc4;" horiz-adv-x="1296" d="M0 20q0 14 8 37l416 1135q31 84 31 137q0 47 -19 76h334q23 0 31 -21l495 -1384h-268q-35 0 -47 37l-92 293h-518l-113 -330h-225q-33 0 -33 20zM279 1663q0 55 36.5 94t104.5 39t104.5 -39t36.5 -94q0 -53 -35 -88q-39 -41 -106 -41q-68 0 -107 41q-35 35 -34 88z M446 551h375l-180 586zM733 1663q0 55 37 94t104 39q140 0 140 -133q0 -53 -33 -88q-39 -41 -107 -41t-106 41q-35 35 -35 88z" />
<glyph unicode="&#xc5;" horiz-adv-x="1296" d="M0 20q0 14 8 37l416 1135q16 43 49 121q-92 76 -92 196q0 109 75.5 182.5t186.5 73.5t185.5 -73.5t74.5 -182.5q0 -113 -80 -188l473 -1321h-268q-35 0 -47 37l-92 293h-518l-113 -330h-225q-33 0 -33 20zM446 551h375l-180 586zM530 1509q0 -47 33 -80.5t80 -33.5 t79 33.5t32 80.5t-32 81t-79 34t-80 -34t-33 -81z" />
<glyph unicode="&#xc6;" horiz-adv-x="1921" d="M0 25q0 16 10 32l695 1139q55 90 55 133t-23 76h1008q37 0 43 -37l33 -233q-49 31 -133 30h-484v-313h551v-270q-49 31 -133 30h-418v-372h506q84 0 133 30v-270h-891q-31 0 -30 27v305h-449l-188 -332h-252q-33 0 -33 25zM594 551h328v584z" />
<glyph unicode="&#xc7;" horiz-adv-x="1282" d="M111 705q0 315 178 518q182 211 483 211q201 0 311 -50q51 -23 56 -65l22 -232q-156 98 -344 99q-184 0 -289 -111q-119 -125 -118 -375q0 -238 125 -368q111 -117 284 -117q184 0 348 72l80 -226q-197 -90 -436 -90q-334 0 -517 195.5t-183 538.5zM428 -387l160 262 q18 29 55 29h279q-51 -47 -80 -80l-150 -180q-25 -31 -71 -31h-193z" />
<glyph unicode="&#xc8;" horiz-adv-x="1167" d="M137 1405h854q37 0 43 -37l33 -233q-49 31 -133 30h-483v-313h550v-270q-49 31 -133 30h-417v-372h505q84 0 134 30v-270h-891q-31 0 -31 27v1245q0 84 -31 133zM244 1855h309q39 0 55 -28l176 -291h-182q-43 0 -72 31l-194 209q-45 49 -92 79z" />
<glyph unicode="&#xc9;" horiz-adv-x="1167" d="M137 1405h854q37 0 43 -37l33 -233q-49 31 -133 30h-483v-313h550v-270q-49 31 -133 30h-417v-372h505q84 0 134 30v-270h-891q-31 0 -31 27v1245q0 84 -31 133zM432 1536l186 291q18 29 56 28h299q-45 -29 -92 -79l-199 -209q-29 -31 -72 -31h-178z" />
<glyph unicode="&#xca;" horiz-adv-x="1167" d="M137 1405h854q37 0 43 -37l33 -233q-49 31 -133 30h-483v-313h550v-270q-49 31 -133 30h-417v-372h505q84 0 134 30v-270h-891q-31 0 -31 27v1245q0 84 -31 133zM233 1554q0 10 9 21l239 323h228q29 0 51 -32l229 -330h-162q-39 0 -69 35l-152 172l-180 -207h-172 q-20 0 -21 18z" />
<glyph unicode="&#xcb;" horiz-adv-x="1167" d="M137 1405h854q37 0 43 -37l33 -233q-49 31 -133 30h-483v-313h550v-270q-49 31 -133 30h-417v-372h505q84 0 134 30v-270h-891q-31 0 -31 27v1245q0 84 -31 133zM238 1663q0 55 36.5 94t104.5 39t104.5 -39t36.5 -94q0 -53 -35 -88q-39 -41 -106 -41q-68 0 -107 41 q-35 35 -34 88zM692 1663q0 55 37 94t105 39q139 0 139 -133q0 -53 -33 -88q-39 -41 -106 -41q-68 0 -107 41q-35 35 -35 88z" />
<glyph unicode="&#xcc;" horiz-adv-x="618" d="M-84 1855h309q39 0 56 -28l176 -291h-183q-43 0 -71 31l-195 209q-45 49 -92 79zM137 1405h344q-31 -49 -30 -133v-1272h-252q-31 0 -31 27v1245q0 84 -31 133z" />
<glyph unicode="&#xcd;" horiz-adv-x="618" d="M137 1405h344q-31 -49 -30 -133v-1272h-252q-31 0 -31 27v1245q0 84 -31 133zM145 1536l187 291q18 29 55 28h299q-45 -29 -92 -79l-199 -209q-29 -31 -71 -31h-179z" />
<glyph unicode="&#xce;" horiz-adv-x="618" d="M-53 1554q0 10 8 21l240 323h227q29 0 51 -32l229 -330h-161q-39 0 -70 35l-152 172l-180 -207h-172q-20 0 -20 18zM137 1405h344q-31 -49 -30 -133v-1272h-252q-31 0 -31 27v1245q0 84 -31 133z" />
<glyph unicode="&#xcf;" horiz-adv-x="618" d="M-74 1663q0 55 37 94t105 39t104.5 -39t36.5 -94q0 -53 -35 -88q-39 -41 -106 -41q-68 0 -107 41q-35 35 -35 88zM137 1405h344q-31 -49 -30 -133v-1272h-252q-31 0 -31 27v1245q0 84 -31 133zM381 1663q0 55 37 94t104 39q140 0 140 -133q0 -53 -33 -88 q-39 -41 -107 -41t-106 41q-35 35 -35 88z" />
<glyph unicode="&#xd0;" horiz-adv-x="1476" d="M16 614v197h152v461q0 84 -31 133h557q305 0 492 -203q180 -195 180 -500t-180 -499q-186 -203 -492 -203h-495q-31 0 -31 27v587h-152zM451 240h241q158 0 262 118q111 127 111 344q0 219 -111 347q-104 117 -262 116h-241v-354h229v-197h-229v-374z" />
<glyph unicode="&#xd1;" horiz-adv-x="1447" d="M137 1405h299q43 0 66 -37l512 -836v846q0 27 30 27h267q-31 -49 -31 -133v-1282h-176q-37 0 -51 24l-619 1016v-1030h-235q-31 0 -31 27v1245q0 84 -31 133zM375 1640q43 102 108.5 162t130.5 60q61 0 170 -64q74 -43 103 -43q35 0 53 14q27 18 55 82l125 -63 q-94 -223 -235 -223q-66 0 -156 49q-31 18 -62.5 36.5t-54.5 18.5q-35 0 -53 -10q-29 -18 -59 -82z" />
<glyph unicode="&#xd2;" horiz-adv-x="1576" d="M111 702q0 332 179 534t498 202t502 -205q176 -199 176 -531t-176 -530q-182 -205 -502 -205q-319 0 -501 205q-176 199 -176 530zM412 702q0 -246 106 -376q100 -125 270 -125t273.5 127.5t103.5 373.5t-106 377q-98 123 -271 123q-172 0 -270 -123q-106 -131 -106 -377 zM428 1855h309q39 0 56 -28l176 -291h-183q-43 0 -71 31l-195 209q-45 49 -92 79z" />
<glyph unicode="&#xd3;" horiz-adv-x="1576" d="M111 702q0 332 179 534t498 202t502 -205q176 -199 176 -531t-176 -530q-182 -205 -502 -205q-319 0 -501 205q-176 199 -176 530zM412 702q0 -246 106 -376q100 -125 270 -125t273.5 127.5t103.5 373.5t-106 377q-98 123 -271 123q-172 0 -270 -123q-106 -131 -106 -377 zM616 1536l187 291q18 29 55 28h299q-45 -29 -92 -79l-199 -209q-29 -31 -71 -31h-179z" />
<glyph unicode="&#xd4;" horiz-adv-x="1576" d="M111 702q0 332 179 534t498 202t502 -205q176 -199 176 -531t-176 -530q-182 -205 -502 -205q-319 0 -501 205q-176 199 -176 530zM412 702q0 -246 106 -376q100 -125 270 -125t273.5 127.5t103.5 373.5t-106 377q-98 123 -271 123q-172 0 -270 -123q-106 -131 -106 -377 zM418 1554q0 10 8 21l240 323h227q29 0 51 -32l230 -330h-162q-39 0 -70 35l-151 172l-181 -207h-172q-20 0 -20 18z" />
<glyph unicode="&#xd5;" horiz-adv-x="1576" d="M111 702q0 332 179 534t498 202t502 -205q176 -199 176 -531t-176 -530q-182 -205 -502 -205q-319 0 -501 205q-176 199 -176 530zM412 702q0 -246 106 -376q100 -125 270 -125t273.5 127.5t103.5 373.5t-106 377q-98 123 -271 123q-172 0 -270 -123q-106 -131 -106 -377 zM416 1640q43 102 108.5 162t130.5 60q61 0 170 -64q74 -43 103 -43q35 0 53 14q27 18 55 82l125 -63q-94 -223 -235 -223q-66 0 -156 49q-31 18 -62.5 36.5t-54.5 18.5q-35 0 -53 -10q-29 -18 -59 -82z" />
<glyph unicode="&#xd6;" horiz-adv-x="1576" d="M111 702q0 332 179 534t498 202t502 -205q176 -199 176 -531t-176 -530q-182 -205 -502 -205q-319 0 -501 205q-176 199 -176 530zM412 702q0 -246 106 -376q100 -125 270 -125t273.5 127.5t103.5 373.5t-106 377q-98 123 -271 123q-172 0 -270 -123q-106 -131 -106 -377 zM442 1663q0 55 37 94t105 39t104.5 -39t36.5 -94q0 -53 -35 -88q-39 -41 -106 -41q-68 0 -107 41q-35 35 -35 88zM897 1663q0 55 37 94t104 39q140 0 140 -133q0 -53 -33 -88q-39 -41 -107 -41t-106 41q-35 35 -35 88z" />
<glyph unicode="&#xd7;" d="M98 399l283 287l-283 285l146 143q12 12 22 12t19 -8l262 -264l260 264q8 8 18 8t23 -12l145 -143l-282 -285l282 -287l-145 -143q-12 -12 -23 -12q-10 0 -18 8l-260 264l-262 -264q-8 -8 -19 -8q-10 0 -22 12z" />
<glyph unicode="&#xd8;" horiz-adv-x="1576" d="M111 702q0 332 179 534t498 202q190 0 336 -76l127 184l164 -106l-135 -195q186 -199 186 -543q0 -332 -176 -530q-182 -205 -502 -205q-193 0 -337 78l-129 -186l-158 112l131 191q-184 201 -184 540zM412 702q0 -170 55 -292l510 741q-78 51 -189 51q-172 0 -270 -123 q-106 -131 -106 -377zM596 254q84 -53 192 -53q170 0 273.5 127.5t103.5 373.5q0 174 -55 295z" />
<glyph unicode="&#xd9;" horiz-adv-x="1427" d="M127 1405h283q31 0 30 -27v-884q0 -289 273 -289q145 0 209.5 69.5t64.5 219.5v884q0 27 31 27h282q-31 -49 -30 -133v-811q0 -494 -557 -494q-555 0 -555 494v811q0 84 -31 133zM326 1855h309q39 0 55 -28l176 -291h-182q-43 0 -72 31l-194 209q-45 49 -92 79z" />
<glyph unicode="&#xda;" horiz-adv-x="1427" d="M127 1405h283q31 0 30 -27v-884q0 -289 273 -289q145 0 209.5 69.5t64.5 219.5v884q0 27 31 27h282q-31 -49 -30 -133v-811q0 -494 -557 -494q-555 0 -555 494v811q0 84 -31 133zM535 1536l186 291q18 29 55 28h299q-45 -29 -92 -79l-199 -209q-29 -31 -71 -31h-178z" />
<glyph unicode="&#xdb;" horiz-adv-x="1427" d="M127 1405h283q31 0 30 -27v-884q0 -289 273 -289q145 0 209.5 69.5t64.5 219.5v884q0 27 31 27h282q-31 -49 -30 -133v-811q0 -494 -557 -494q-555 0 -555 494v811q0 84 -31 133zM334 1554q0 10 8 21l240 323h227q29 0 51 -32l230 -330h-162q-39 0 -70 35l-151 172 l-181 -207h-172q-20 0 -20 18z" />
<glyph unicode="&#xdc;" horiz-adv-x="1427" d="M127 1405h283q31 0 30 -27v-884q0 -289 273 -289q145 0 209.5 69.5t64.5 219.5v884q0 27 31 27h282q-31 -49 -30 -133v-811q0 -494 -557 -494q-555 0 -555 494v811q0 84 -31 133zM371 1663q0 55 36.5 94t104.5 39t104.5 -39t36.5 -94q0 -53 -35 -88q-39 -41 -106 -41 q-68 0 -106 41q-35 35 -35 88zM825 1663q0 55 37 94t105 39q139 0 139 -133q0 -53 -33 -88q-39 -41 -106 -41q-68 0 -107 41q-35 35 -35 88z" />
<glyph unicode="&#xdd;" horiz-adv-x="1288" d="M0 1405h313q49 0 68 -33l268 -479l289 479q20 33 68 33h282q-37 -12 -86 -90l-428 -672v-643h-252q-31 0 -30 27v612l-404 676q-45 76 -88 90zM504 1536l186 291q18 29 55 28h299q-45 -29 -92 -79l-198 -209q-29 -31 -72 -31h-178z" />
<glyph unicode="&#xde;" horiz-adv-x="1257" d="M137 1405h279q31 0 30 -27v-190h211q227 0 351 -86q147 -105 147 -324q0 -236 -156 -354q-135 -102 -401 -102q-25 0 -154 6v-328h-245q-31 0 -31 27v1245q0 84 -31 133zM446 547q68 -6 170 -6q248 0 248 221q0 203 -229 203h-189v-418z" />
<glyph unicode="&#xdf;" horiz-adv-x="1241" d="M53 778v84l144 92v95q0 166 123.5 269t308.5 103q184 0 298.5 -88t114.5 -250q0 -213 -178 -303q287 -59 287 -370q0 -197 -124 -317t-327 -120q-104 0 -137 17l29 215q25 -4 59 -4q100 0 160 67q55 61 55 154q0 223 -260 223q-35 0 -35 31v164q92 6 145.5 61t53.5 148 q0 70 -40 110.5t-109 40.5q-156 0 -156 -170v-1030h-238q-31 0 -30 27v729h-115q-29 0 -29 22z" />
<glyph unicode="&#xe0;" horiz-adv-x="1099" d="M92 293q0 317 414 317q80 0 188 -14v41q0 154 -202 154q-139 0 -265 -70l-53 121q-8 18 -8 37q0 31 57 55q137 57 299 57q436 0 436 -354v-637h-229q-31 0 -31 27v84q-72 -127 -286 -127q-152 0 -236 86t-84 223zM182 1395h310q39 0 55 -29l176 -291h-182q-43 0 -72 31 l-195 209q-45 49 -92 80zM354 311q0 -127 148 -127q129 0 192 74v172q-82 16 -159 16q-180 0 -181 -135z" />
<glyph unicode="&#xe1;" horiz-adv-x="1099" d="M92 293q0 317 414 317q80 0 188 -14v41q0 154 -202 154q-139 0 -265 -70l-53 121q-8 18 -8 37q0 31 57 55q137 57 299 57q436 0 436 -354v-637h-229q-31 0 -31 27v84q-72 -127 -286 -127q-152 0 -236 86t-84 223zM354 311q0 -127 148 -127q129 0 192 74v172 q-82 16 -159 16q-180 0 -181 -135zM412 1075l186 291q18 29 55 29h299q-45 -29 -92 -80l-198 -209q-29 -31 -72 -31h-178z" />
<glyph unicode="&#xe2;" horiz-adv-x="1099" d="M92 293q0 317 414 317q80 0 188 -14v41q0 154 -202 154q-139 0 -265 -70l-53 121q-8 18 -8 37q0 31 57 55q137 57 299 57q436 0 436 -354v-637h-229q-31 0 -31 27v84q-72 -127 -286 -127q-152 0 -236 86t-84 223zM174 1094q0 10 8 20l240 324h227q29 0 51 -33l230 -330 h-162q-39 0 -70 35l-151 172l-180 -207h-172q-20 0 -21 19zM354 311q0 -127 148 -127q129 0 192 74v172q-82 16 -159 16q-180 0 -181 -135z" />
<glyph unicode="&#xe3;" horiz-adv-x="1099" d="M92 293q0 317 414 317q80 0 188 -14v41q0 154 -202 154q-139 0 -265 -70l-53 121q-8 18 -8 37q0 31 57 55q137 57 299 57q436 0 436 -354v-637h-229q-31 0 -31 27v84q-72 -127 -286 -127q-152 0 -236 86t-84 223zM211 1180q43 102 108.5 161.5t131.5 59.5q61 0 170 -64 q74 -43 102 -43q35 0 53 15q27 18 55 82l125 -64q-94 -223 -235 -223q-66 0 -156 49q-31 18 -62.5 36.5t-53.5 18.5q-35 0 -54 -10q-29 -18 -59 -82zM354 311q0 -127 148 -127q129 0 192 74v172q-82 16 -159 16q-180 0 -181 -135z" />
<glyph unicode="&#xe4;" horiz-adv-x="1099" d="M92 293q0 317 414 317q80 0 188 -14v41q0 154 -202 154q-139 0 -265 -70l-53 121q-8 18 -8 37q0 31 57 55q137 57 299 57q436 0 436 -354v-637h-229q-31 0 -31 27v84q-72 -127 -286 -127q-152 0 -236 86t-84 223zM197 1202q0 55 36.5 94t104.5 39t104.5 -39t36.5 -94 q0 -53 -35 -88q-39 -41 -106 -41q-68 0 -107 41q-35 35 -34 88zM354 311q0 -127 148 -127q129 0 192 74v172q-82 16 -159 16q-180 0 -181 -135zM651 1202q0 55 37 94t105 39q139 0 139 -133q0 -53 -33 -88q-39 -41 -106 -41q-68 0 -107 41q-35 35 -35 88z" />
<glyph unicode="&#xe5;" horiz-adv-x="1099" d="M92 293q0 317 414 317q80 0 188 -14v41q0 154 -202 154q-139 0 -265 -70l-53 121q-8 18 -8 37q0 31 57 55q137 57 299 57q436 0 436 -354v-637h-229q-31 0 -31 27v84q-72 -127 -286 -127q-152 0 -236 86t-84 223zM313 1335q0 109 76 182.5t186 73.5q111 0 186 -73.5 t75 -182.5t-75 -183.5t-186 -74.5t-186.5 75t-75.5 183zM354 311q0 -127 148 -127q129 0 192 74v172q-82 16 -159 16q-180 0 -181 -135zM463 1335q0 -47 32.5 -80.5t79.5 -33.5t79 33.5t32 80.5t-31.5 81t-79.5 34q-47 0 -79.5 -34t-32.5 -81z" />
<glyph unicode="&#xe6;" horiz-adv-x="1658" d="M92 293q0 317 414 317q80 0 188 -14v41q0 154 -202 154q-139 0 -265 -70l-53 121q-8 18 -8 37q0 31 57 55q137 57 299 57q233 0 332 -117q111 117 303 117q213 0 324 -149q96 -129 96 -363v-22q0 -53 -59 -54h-560q25 -211 263 -210q131 0 262 51l71 -195 q-152 -74 -356 -74q-248 0 -387 150q-113 -141 -360 -141q-186 0 -281 98q-78 82 -78 211zM354 309q0 -125 164 -125q68 0 133 27q53 22 76 49q-35 74 -41 172q-86 14 -151 14q-180 0 -181 -137zM958 584h349q0 229 -170 229q-178 0 -179 -229z" />
<glyph unicode="&#xe7;" horiz-adv-x="997" d="M90 471q0 240 135 380t375 140q113 0 213 -35q45 -16 49 -59l19 -213q-123 78 -258 78q-109 0 -177 -70q-76 -78 -75 -219q0 -266 266 -266q113 0 235 51l62 -217q-164 -66 -338 -66q-184 0 -313 88q-193 133 -193 408zM268 -387l160 262q18 29 55 29h279 q-51 -47 -80 -80l-150 -180q-25 -31 -71 -31h-193z" />
<glyph unicode="&#xe8;" horiz-adv-x="1064" d="M90 477q0 231 122 372.5t339 141.5q225 0 336 -149q96 -131 96 -363v-22q0 -53 -59 -54h-559q25 -211 262 -210q131 0 262 51l72 -195q-152 -74 -357 -74q-240 0 -377 137.5t-137 364.5zM205 1395h309q39 0 55 -29l176 -291h-182q-43 0 -71 31l-195 209q-45 49 -92 80z M365 584h348q0 229 -170 229q-178 0 -178 -229z" />
<glyph unicode="&#xe9;" horiz-adv-x="1064" d="M90 477q0 231 122 372.5t339 141.5q225 0 336 -149q96 -131 96 -363v-22q0 -53 -59 -54h-559q25 -211 262 -210q131 0 262 51l72 -195q-152 -74 -357 -74q-240 0 -377 137.5t-137 364.5zM365 584h348q0 229 -170 229q-178 0 -178 -229zM393 1075l187 291q18 29 55 29h299 q-45 -29 -92 -80l-199 -209q-29 -31 -72 -31h-178z" />
<glyph unicode="&#xea;" horiz-adv-x="1064" d="M90 477q0 231 122 372.5t339 141.5q225 0 336 -149q96 -131 96 -363v-22q0 -53 -59 -54h-559q25 -211 262 -210q131 0 262 51l72 -195q-152 -74 -357 -74q-240 0 -377 137.5t-137 364.5zM172 1094q0 10 8 20l240 324h227q29 0 51 -33l230 -330h-162q-39 0 -70 35 l-151 172l-180 -207h-172q-20 0 -21 19zM365 584h348q0 229 -170 229q-178 0 -178 -229z" />
<glyph unicode="&#xeb;" horiz-adv-x="1064" d="M82 477q0 231 122 372.5t339 141.5q225 0 336 -149q96 -131 96 -363v-22q0 -53 -60 -54h-559q25 -211 262 -210q131 0 263 51l71 -195q-152 -74 -356 -74q-240 0 -377 137.5t-137 364.5zM180 1202q0 55 37 94t105 39t104.5 -39t36.5 -94q0 -53 -35 -88q-39 -41 -106 -41 q-68 0 -107 41q-35 35 -35 88zM356 584h349q0 229 -170 229q-178 0 -179 -229zM635 1202q0 55 37 94t104 39q139 0 139 -133q0 -53 -32 -88q-39 -41 -107 -41t-106 41q-35 35 -35 88z" />
<glyph unicode="&#xec;" horiz-adv-x="542" d="M-139 1395h309q39 0 55 -29l176 -291h-182q-43 0 -72 31l-194 209q-45 49 -92 80zM104 967h269q31 0 30 -27v-940h-237q-31 0 -31 27v807q0 84 -31 133z" />
<glyph unicode="&#xed;" horiz-adv-x="542" d="M84 1075l186 291q18 29 56 29h299q-45 -29 -93 -80l-198 -209q-29 -31 -72 -31h-178zM104 967h269q31 0 30 -27v-940h-237q-31 0 -31 27v807q0 84 -31 133z" />
<glyph unicode="&#xee;" horiz-adv-x="542" d="M-115 1094q0 10 9 20l239 324h227q29 0 52 -33l229 -330h-162q-39 0 -69 35l-152 172l-180 -207h-172q-20 0 -21 19zM104 967h269q31 0 30 -27v-940h-237q-31 0 -31 27v807q0 84 -31 133z" />
<glyph unicode="&#xef;" horiz-adv-x="542" d="M-111 1202q0 55 37 94t105 39t104.5 -39t36.5 -94q0 -53 -35 -88q-39 -41 -106 -41q-68 0 -107 41q-35 35 -35 88zM104 967h269q31 0 30 -27v-940h-237q-31 0 -31 27v807q0 84 -31 133zM344 1202q0 55 37 94t104 39q140 0 140 -133q0 -53 -33 -88q-39 -41 -107 -41 t-106 41q-35 35 -35 88z" />
<glyph unicode="&#xf0;" horiz-adv-x="1155" d="M90 432q0 207 131 336q123 121 297 121q133 0 205 -51q-33 121 -152 235l-153 -125l-96 113l135 110q-70 51 -144 84l88 168q123 -45 228 -112l137 112l94 -112l-110 -90q315 -275 315 -697q0 -276 -141 -418q-129 -131 -363 -131q-205 0 -334 121q-137 125 -137 336z M369 432q0 -238 209 -237q208 -1 208 237q0 236 -208 236q-209 0 -209 -236z" />
<glyph unicode="&#xf1;" horiz-adv-x="1177" d="M100 967h230q29 0 37 -21q10 -29 16 -108q98 154 301 153q352 0 352 -362v-629h-241q-31 0 -31 27v551q0 96 -34 139t-118 43q-57 0 -113.5 -36t-88.5 -87v-637h-238q-31 0 -31 27v675q0 76 -18 189q-6 41 -23 76zM211 1180q43 102 108.5 161.5t131.5 59.5q61 0 170 -64 q74 -43 102 -43q35 0 53 15q27 18 55 82l125 -64q-94 -223 -235 -223q-66 0 -156 49q-31 18 -62.5 36.5t-53.5 18.5q-35 0 -54 -10q-29 -18 -59 -82z" />
<glyph unicode="&#xf2;" horiz-adv-x="1155" d="M90 483q0 236 139 375q133 133 349 133q215 0 348 -133q139 -139 139 -375t-136 -372t-351 -136t-349 134q-139 139 -139 374zM223 1395h309q39 0 56 -29l176 -291h-182q-43 0 -72 31l-195 209q-45 49 -92 80zM369 483q0 -137 55 -212.5t154 -75.5q98 0 153 75.5 t55 212.5t-55 212t-153 75t-153.5 -74.5t-55.5 -212.5z" />
<glyph unicode="&#xf3;" horiz-adv-x="1155" d="M90 483q0 236 139 375q133 133 349 133q215 0 348 -133q139 -139 139 -375t-136 -372t-351 -136t-349 134q-139 139 -139 374zM369 483q0 -137 55 -212.5t154 -75.5q98 0 153 75.5t55 212.5t-55 212t-153 75t-153.5 -74.5t-55.5 -212.5zM432 1075l186 291q18 29 56 29 h299q-45 -29 -92 -80l-199 -209q-29 -31 -72 -31h-178z" />
<glyph unicode="&#xf4;" horiz-adv-x="1155" d="M90 483q0 236 139 375q133 133 349 133q215 0 348 -133q139 -139 139 -375t-136 -372t-351 -136t-349 134q-139 139 -139 374zM209 1094q0 10 8 20l240 324h227q29 0 51 -33l230 -330h-162q-39 0 -70 35l-151 172l-181 -207h-172q-20 0 -20 19zM369 483q0 -137 55 -212.5 t154 -75.5q98 0 153 75.5t55 212.5t-55 212t-153 75t-153.5 -74.5t-55.5 -212.5z" />
<glyph unicode="&#xf5;" horiz-adv-x="1155" d="M90 483q0 236 139 375q133 133 349 133q215 0 348 -133q139 -139 139 -375t-136 -372t-351 -136t-349 134q-139 139 -139 374zM201 1180q43 102 108.5 161.5t130.5 59.5q61 0 170 -64q74 -43 103 -43q35 0 53 15q27 18 55 82l125 -64q-94 -223 -235 -223q-66 0 -156 49 q-31 18 -62.5 36.5t-54.5 18.5q-35 0 -53 -10q-29 -18 -59 -82zM369 483q0 -137 55 -212.5t154 -75.5q98 0 153 75.5t55 212.5t-55 212t-153 75t-153.5 -74.5t-55.5 -212.5z" />
<glyph unicode="&#xf6;" horiz-adv-x="1155" d="M90 483q0 236 139 375q133 133 349 133q215 0 348 -133q139 -139 139 -375t-136 -372t-351 -136t-349 134q-139 139 -139 374zM197 1202q0 55 36.5 94t104.5 39t104.5 -39t36.5 -94q0 -53 -35 -88q-39 -41 -106 -41q-68 0 -107 41q-35 35 -34 88zM369 483 q0 -137 55 -212.5t154 -75.5q98 0 153 75.5t55 212.5t-55 212t-153 75t-153.5 -74.5t-55.5 -212.5zM651 1202q0 55 37 94t105 39q139 0 139 -133q0 -53 -33 -88q-39 -41 -106 -41q-68 0 -107 41q-35 35 -35 88z" />
<glyph unicode="&#xf7;" d="M29 600v201h1009q29 0 29 -23v-203h-1008q-31 0 -30 25zM385 262q0 66 47 112t121 46t121 -46t47 -112t-46 -109.5t-122 -43.5t-122 44t-46 109zM385 1110q0 66 47 112t121 46t121 -46t47 -112t-46 -110t-122 -44t-122 44t-46 110z" />
<glyph unicode="&#xf8;" horiz-adv-x="1155" d="M90 483q0 236 139 375q133 133 349 133q111 0 206 -39l82 125l135 -86l-83 -125q147 -141 147 -383q0 -236 -136 -372t-351 -136q-123 0 -220 45l-90 -137l-135 80l96 146q-139 139 -139 374zM356 483q0 -86 21 -153l291 428q-45 18 -90 18q-104 0 -163 -76.5t-59 -216.5 zM479 223q41 -37 99 -37q102 0 160.5 78t58.5 219q0 92 -27 168z" />
<glyph unicode="&#xf9;" horiz-adv-x="1177" d="M111 967h272q31 0 31 -27v-551q0 -98 35.5 -138t117.5 -40q127 0 201 102v521q0 84 -31 133h269q31 0 30 -27v-940h-225q-29 0 -31 27l-8 88q-84 -131 -289 -131q-152 0 -241 77q-100 88 -101 281v492q0 84 -30 133zM203 1395h309q39 0 55 -29l176 -291h-182 q-43 0 -72 31l-194 209q-45 49 -92 80z" />
<glyph unicode="&#xfa;" horiz-adv-x="1177" d="M111 967h272q31 0 31 -27v-551q0 -98 35.5 -138t117.5 -40q127 0 201 102v521q0 84 -31 133h269q31 0 30 -27v-940h-225q-29 0 -31 27l-8 88q-84 -131 -289 -131q-152 0 -241 77q-100 88 -101 281v492q0 84 -30 133zM442 1075l187 291q18 29 55 29h299q-45 -29 -92 -80 l-199 -209q-29 -31 -71 -31h-179z" />
<glyph unicode="&#xfb;" horiz-adv-x="1177" d="M111 967h272q31 0 31 -27v-551q0 -98 35.5 -138t117.5 -40q127 0 201 102v521q0 84 -31 133h269q31 0 30 -27v-940h-225q-29 0 -31 27l-8 88q-84 -131 -289 -131q-152 0 -241 77q-100 88 -101 281v492q0 84 -30 133zM193 1094q0 10 8 20l239 324h228q29 0 51 -33 l229 -330h-162q-39 0 -69 35l-152 172l-180 -207h-172q-20 0 -20 19z" />
<glyph unicode="&#xfc;" horiz-adv-x="1177" d="M111 967h272q31 0 31 -27v-551q0 -98 35.5 -138t117.5 -40q127 0 201 102v521q0 84 -31 133h269q31 0 30 -27v-940h-225q-29 0 -31 27l-8 88q-84 -131 -289 -131q-152 0 -241 77q-100 88 -101 281v492q0 84 -30 133zM227 1202q0 55 37 94t105 39t104.5 -39t36.5 -94 q0 -53 -35 -88q-39 -41 -106 -41q-68 0 -107 41q-35 35 -35 88zM682 1202q0 55 37 94t104 39q140 0 140 -133q0 -53 -33 -88q-39 -41 -107 -41t-106 41q-35 35 -35 88z" />
<glyph unicode="&#xfd;" horiz-adv-x="1075" d="M0 967h283q33 0 47 -37l231 -582l209 582q12 37 49 37h256q-25 -16 -59 -105l-369 -930q-127 -319 -391 -319q-139 0 -233 47l65 203q72 -31 131 -31q113 0 170 139l37 90l-365 803q-20 45 -30 62q-16 31 -31 41zM432 1075l186 291q18 29 56 29h299q-45 -29 -92 -80 l-199 -209q-29 -31 -72 -31h-178z" />
<glyph unicode="&#xfe;" horiz-adv-x="1175" d="M111 1405l208 14q59 4 60 4q31 0 31 -26v-494q98 88 258 88q186 0 299 -123q118 -130 118 -374q0 -240 -127 -379.5t-317 -139.5q-143 0 -231 70v-422h-238q-31 0 -31 27v1622q0 84 -30 133zM410 270q80 -76 186 -75q96 0 153.5 76.5t57.5 215.5q0 283 -213 283 q-98 0 -184 -78v-422z" />
<glyph unicode="&#xff;" horiz-adv-x="1075" d="M0 967h283q33 0 47 -37l231 -582l209 582q12 37 49 37h256q-25 -16 -59 -105l-369 -930q-127 -319 -391 -319q-139 0 -233 47l65 203q72 -31 131 -31q113 0 170 139l37 90l-365 803q-20 45 -30 62q-16 31 -31 41zM176 1202q0 55 37 94t104 39q68 0 105 -39t37 -94 q0 -53 -35 -88q-39 -41 -107 -41t-106 41q-35 35 -35 88zM631 1202q0 55 37 94t104 39q139 0 139 -133q0 -53 -32 -88q-39 -41 -107 -41t-106 41q-35 35 -35 88z" />
<glyph unicode="&#x152;" horiz-adv-x="2164" d="M111 702q0 326 182 531t475 205q141 0 260 -54q109 -49 143 -112v133h818q37 0 43 -37l32 -233q-49 31 -133 30h-483v-313h551v-270q-49 31 -133 30h-418v-372h506q84 0 133 30v-270h-891q-31 0 -31 27v114q-152 -174 -417 -174q-297 0 -467 203t-170 532zM412 702 q0 -244 108 -376q102 -125 275 -125q168 0 274.5 135t106.5 366q0 233 -109 371q-104 129 -272 129q-172 0 -275 -123q-109 -133 -108 -377z" />
<glyph unicode="&#x153;" horiz-adv-x="1761" d="M90 483q0 236 139 375q133 133 349 133q217 0 344 -147q111 147 340 147q211 0 321 -149q96 -129 96 -363v-22q0 -53 -59 -54h-559q25 -211 262 -210q131 0 262 51l72 -195q-152 -74 -357 -74q-244 0 -372 154q-127 -154 -350 -154q-215 0 -349 134q-139 139 -139 374z M369 483q0 -137 55 -212.5t154 -75.5q98 0 153 75.5t55 212.5t-55 212t-153 75t-153.5 -74.5t-55.5 -212.5zM1061 584h348q0 229 -170 229q-178 0 -178 -229z" />
<glyph unicode="&#x178;" horiz-adv-x="1288" d="M0 1405h313q49 0 68 -33l268 -479l289 479q20 33 68 33h282q-37 -12 -86 -90l-428 -672v-643h-252q-31 0 -30 27v612l-404 676q-45 76 -88 90zM258 1663q0 55 37 94t104 39q68 0 105 -39t37 -94q0 -53 -35 -88q-39 -41 -107 -41t-106 41q-35 35 -35 88zM713 1663 q0 55 36.5 94t104.5 39q139 0 139 -133q0 -53 -32 -88q-39 -41 -107 -41t-106 41q-35 35 -35 88z" />
<glyph unicode="&#x2c6;" horiz-adv-x="1105" d="M172 1094q0 10 8 20l240 324h227q29 0 51 -33l230 -330h-162q-39 0 -70 35l-151 172l-180 -207h-172q-20 0 -21 19z" />
<glyph unicode="&#x2dc;" horiz-adv-x="1105" d="M190 1180q43 102 109 161.5t131 59.5q61 0 170 -64q74 -43 102 -43q35 0 54 15q27 18 55 82l125 -64q-94 -223 -236 -223q-66 0 -155 49q-31 18 -62.5 36.5t-54.5 18.5q-35 0 -53 -10q-29 -18 -60 -82z" />
<glyph unicode="&#x2000;" horiz-adv-x="949" />
<glyph unicode="&#x2001;" horiz-adv-x="1898" />
<glyph unicode="&#x2002;" horiz-adv-x="949" />
<glyph unicode="&#x2003;" horiz-adv-x="1898" />
<glyph unicode="&#x2004;" horiz-adv-x="632" />
<glyph unicode="&#x2005;" horiz-adv-x="474" />
<glyph unicode="&#x2006;" horiz-adv-x="316" />
<glyph unicode="&#x2007;" horiz-adv-x="316" />
<glyph unicode="&#x2008;" horiz-adv-x="237" />
<glyph unicode="&#x2009;" horiz-adv-x="379" />
<glyph unicode="&#x200a;" horiz-adv-x="105" />
<glyph unicode="&#x2010;" horiz-adv-x="759" d="M76 449v221h579q29 0 29 -23v-223h-578q-31 0 -30 25z" />
<glyph unicode="&#x2011;" horiz-adv-x="759" d="M76 449v221h579q29 0 29 -23v-223h-578q-31 0 -30 25z" />
<glyph unicode="&#x2012;" horiz-adv-x="759" d="M76 449v221h579q29 0 29 -23v-223h-578q-31 0 -30 25z" />
<glyph unicode="&#x2013;" horiz-adv-x="1024" d="M0 424v211h1024v-211h-1024z" />
<glyph unicode="&#x2014;" horiz-adv-x="2048" d="M0 424v211h2048v-211h-2048z" />
<glyph unicode="&#x2018;" horiz-adv-x="559" d="M106 973q0 137 82 291q61 115 123 174l129 -84q-109 -139 -123 -267q142 -32 142 -157q0 -70 -47 -118t-127 -48t-129.5 55t-49.5 154z" />
<glyph unicode="&#x2019;" horiz-adv-x="559" d="M106 1272q0 70 47.5 118t127.5 48t129 -55.5t49 -153.5q0 -137 -82 -291q-61 -115 -123 -174l-129 84q109 139 123 266q-141 33 -142 158z" />
<glyph unicode="&#x201a;" horiz-adv-x="559" d="M106 137q0 70 47.5 118t127.5 48t129 -55.5t49 -153.5q0 -137 -82 -291q-61 -115 -123 -174l-129 84q109 139 123 267q-141 33 -142 157z" />
<glyph unicode="&#x201c;" horiz-adv-x="1038" d="M102 973q0 137 82 291q61 115 123 174l129 -84q-109 -139 -123 -267q142 -32 142 -157q0 -70 -47.5 -118t-126.5 -48q-80 0 -129.5 55t-49.5 154zM584 973q0 137 82 291q61 115 122 174l130 -84q-109 -139 -123 -267q141 -32 141 -157q0 -70 -47 -118t-127 -48t-129 55 t-49 154z" />
<glyph unicode="&#x201d;" horiz-adv-x="1038" d="M102 1272q0 70 47.5 118t126.5 48q80 0 129.5 -55.5t49.5 -153.5q0 -137 -82 -291q-61 -115 -123 -174l-129 84q109 139 123 266q-141 33 -142 158zM584 1272q0 70 47 118t127 48t129 -55.5t49 -153.5q0 -137 -82 -291q-61 -115 -123 -174l-129 84q109 139 123 266 q-141 33 -141 158z" />
<glyph unicode="&#x201e;" horiz-adv-x="1038" d="M102 137q0 70 47.5 118t126.5 48q80 0 129.5 -55.5t49.5 -153.5q0 -137 -82 -291q-61 -115 -123 -174l-129 84q109 139 123 267q-141 33 -142 157zM584 137q0 70 47 118t127 48t129 -55.5t49 -153.5q0 -137 -82 -291q-61 -115 -123 -174l-129 84q109 139 123 267 q-141 33 -141 157z" />
<glyph unicode="&#x2022;" horiz-adv-x="1003" d="M164 702q0 139 99 238.5t239 99.5q139 0 238.5 -99.5t99.5 -238.5t-99.5 -238t-238.5 -99t-238.5 99t-99.5 238z" />
<glyph unicode="&#x2026;" horiz-adv-x="2048" d="M162 137q0 68 49 117t127 49t127 -49t49 -117t-49 -115t-127 -47t-127 47.5t-49 114.5zM840 137q0 68 49 117t127 49t127 -49t49 -117t-49 -115t-127 -47t-127 47.5t-49 114.5zM1518 137q0 68 49 117t127 49t127 -49t49 -117t-49 -115t-127 -47t-127 47.5t-49 114.5z" />
<glyph unicode="&#x202f;" horiz-adv-x="379" />
<glyph unicode="&#x2039;" horiz-adv-x="661" d="M49 520l273 336h290l-272 -336l272 -336h-290z" />
<glyph unicode="&#x203a;" horiz-adv-x="661" d="M49 184l273 336l-273 336h291l272 -336l-272 -336h-291z" />
<glyph unicode="&#x205f;" horiz-adv-x="474" />
<glyph unicode="&#x20ac;" horiz-adv-x="1282" d="M53 451v143h133q-4 37 -4 96q0 39 4 88h-102q-31 0 -31 25v143h168q43 193 187 320q156 139 368 139q174 0 281 -53q47 -23 49 -60l16 -221q-35 33 -102 62q-100 43 -205 43q-127 0 -213 -70q-78 -61 -102 -160h393q25 0 29 -22l24 -146h-489q-6 -61 -6 -92q0 -35 8 -92 h352q27 0 29 -23l18 -145h-360q68 -221 321 -221q178 0 314 69l71 -215q-180 -88 -393 -88q-481 0 -596 455h-131q-31 0 -31 25z" />
<glyph unicode="&#x2122;" horiz-adv-x="1654" d="M55 1274v131h576q20 0 22 -23l15 -153q-18 23 -84 22h-131v-620h-164q-27 0 -27 24v596h-178q-29 0 -29 23zM743 1405h238q25 0 35 -25l164 -372l178 397h258q-23 -29 -23 -88v-686h-153q-27 0 -27 24v502l-188 -450h-101l-178 450v-526h-153q-27 0 -27 24v662 q0 59 -23 88z" />
<glyph unicode="&#x25fc;" horiz-adv-x="962" d="M0 0v963h963v-963h-963z" />
</font>
</defs>
</svg>
